<svg width="949" height="465" viewBox="0 0 949 465" fill="none" xmlns="http://www.w3.org/2000/svg">
<g filter="url(#filter0_bdi_45_1307)">
<path d="M927.359 15H28.3524C23.7395 15 20 18.7395 20 23.3524V619.364C20 623.977 23.7395 627.716 28.3524 627.716H927.359C931.972 627.716 935.711 623.977 935.711 619.364V23.3524C935.711 18.7395 931.972 15 927.359 15Z" fill="black"/>
</g>
<rect opacity="0.2" x="291.22" y="23.5097" width="368.481" height="17.0199" rx="4.17621" fill="#A7AFCD"/>
<path d="M279.266 28.7217L275.181 26.993C275.057 26.9406 274.923 26.9136 274.788 26.9136C274.654 26.9136 274.52 26.9406 274.396 26.993L270.311 28.7217C269.93 28.8817 269.681 29.2598 269.681 29.679C269.681 33.9685 272.117 36.9333 274.394 37.8971C274.645 38.003 274.928 38.003 275.179 37.8971C277.002 37.1256 279.893 34.4612 279.893 29.679C279.893 29.2598 279.644 28.8817 279.266 28.7217ZM274.789 36.5573L274.787 28.3241L278.53 29.9081C278.459 33.1798 276.783 35.5503 274.789 36.5573Z" fill="white"/>
<path d="M443.623 31.4646H443.219V30.4878C443.219 29.3088 442.667 28.6157 441.566 28.6157C440.464 28.6157 439.912 29.3088 439.912 30.4878V31.4646H439.426C439.197 31.4646 439.013 31.7276 439.013 31.9526V35.4606C439.013 35.6841 439.19 35.9242 439.406 35.9926L439.901 36.1501C440.163 36.2254 440.434 36.2672 440.707 36.2746H442.424C442.697 36.2673 442.968 36.2253 443.23 36.1497L443.725 35.9922C443.941 35.9242 444.119 35.6841 444.119 35.4606V31.9526C444.119 31.7276 443.851 31.4646 443.623 31.4646ZM442.392 31.4646H440.739V30.3246C440.739 29.7365 441.068 29.4297 441.566 29.4297C442.063 29.4297 442.392 29.7365 442.392 30.3246V31.4646Z" fill="white"/>
<path d="M453.167 35.0846C452.653 35.0846 452.265 34.9468 452.002 34.6711C451.738 34.3892 451.607 33.9695 451.607 33.412V30.9971H450.686V30.2642H451.607V29.0144L452.556 28.7607V30.2642H453.871V30.9971H452.556V33.3274C452.556 33.6782 452.619 33.9288 452.744 34.0791C452.869 34.2295 453.051 34.3047 453.289 34.3047C453.408 34.3047 453.511 34.2953 453.599 34.2765C453.693 34.2514 453.777 34.2232 453.853 34.1919V34.9624C453.759 35 453.649 35.0282 453.524 35.047C453.398 35.072 453.279 35.0846 453.167 35.0846ZM456.552 35.0846C456.132 35.0846 455.766 34.9875 455.453 34.7933C455.139 34.5991 454.895 34.3172 454.72 33.9476C454.551 33.578 454.466 33.1395 454.466 32.6321C454.466 32.1184 454.551 31.6799 454.72 31.3166C454.895 30.9533 455.139 30.6745 455.453 30.4803C455.766 30.2798 456.132 30.1796 456.552 30.1796C456.966 30.1796 457.326 30.283 457.633 30.4897C457.94 30.6964 458.143 30.9783 458.243 31.3354H458.14L458.234 30.2642H459.155C459.136 30.4584 459.117 30.6526 459.099 30.8468C459.086 31.0347 459.08 31.2195 459.08 31.4012V35H458.131V33.9476H458.234C458.134 34.2984 457.927 34.5772 457.614 34.7839C457.307 34.9843 456.953 35.0846 456.552 35.0846ZM456.787 34.3422C457.194 34.3422 457.52 34.1982 457.764 33.91C458.015 33.6219 458.14 33.1959 458.14 32.6321C458.14 32.0683 458.015 31.6455 457.764 31.3636C457.52 31.0754 457.194 30.9313 456.787 30.9313C456.374 30.9313 456.042 31.0754 455.791 31.3636C455.547 31.6455 455.425 32.0683 455.425 32.6321C455.425 33.1959 455.547 33.6219 455.791 33.91C456.035 34.1982 456.367 34.3422 456.787 34.3422ZM462.09 35.0846C461.695 35.0846 461.332 35.0345 461 34.9342C460.668 34.834 460.392 34.693 460.173 34.5114L460.465 33.863C460.696 34.0384 460.953 34.17 461.235 34.2577C461.517 34.3454 461.805 34.3892 462.1 34.3892C462.444 34.3892 462.704 34.3297 462.879 34.2107C463.055 34.0854 463.143 33.9163 463.143 33.7033C463.143 33.5404 463.086 33.4089 462.973 33.3086C462.867 33.2084 462.688 33.1332 462.438 33.0831L461.536 32.9046C461.135 32.8169 460.831 32.6665 460.624 32.4536C460.418 32.2406 460.314 31.9681 460.314 31.6361C460.314 31.3542 460.389 31.1036 460.54 30.8843C460.696 30.6651 460.916 30.4928 461.197 30.3675C461.486 30.2423 461.821 30.1796 462.203 30.1796C462.554 30.1796 462.879 30.2297 463.18 30.33C463.481 30.4302 463.731 30.5743 463.932 30.7622L463.631 31.3918C463.437 31.2289 463.218 31.1036 462.973 31.0159C462.729 30.9219 462.482 30.875 462.231 30.875C461.88 30.875 461.62 30.9407 461.451 31.0723C461.282 31.2038 461.197 31.3761 461.197 31.5891C461.197 31.752 461.248 31.8866 461.348 31.9931C461.454 32.0934 461.62 32.1717 461.846 32.228L462.748 32.4066C463.174 32.4943 463.493 32.6384 463.706 32.8388C463.919 33.0393 464.026 33.3086 464.026 33.6469C464.026 33.9413 463.944 34.1982 463.781 34.4174C463.619 34.6367 463.393 34.8027 463.105 34.9154C462.817 35.0282 462.479 35.0846 462.09 35.0846ZM465.144 35V28.0842H466.093V32.3314H466.112L468.179 30.2642H469.354L466.855 32.7542L466.864 32.3314L469.561 35H468.358L466.112 32.8294H466.093V35H465.144ZM470.145 35V30.2642H471.095V35H470.145ZM470.07 29.2776V28.2909H471.17V29.2776H470.07ZM472.767 35V30.9971H471.846V30.2642H473.03L472.767 30.5085V29.7568C472.767 29.1992 472.908 28.7764 473.19 28.4882C473.472 28.1938 473.885 28.0466 474.43 28.0466C474.562 28.0466 474.7 28.056 474.844 28.0748C474.988 28.0936 475.107 28.1249 475.201 28.1688V28.9393C475.126 28.908 475.032 28.8829 474.919 28.8641C474.813 28.839 474.703 28.8265 474.59 28.8265C474.409 28.8265 474.252 28.8641 474.12 28.9393C473.989 29.0082 473.885 29.1147 473.81 29.2588C473.741 29.4028 473.707 29.5876 473.707 29.8131V30.4521L473.566 30.2642H474.994V30.9971H473.716V35H472.767ZM475.565 37.133L475.34 36.3625C475.634 36.2998 475.879 36.2247 476.073 36.137C476.273 36.0493 476.439 35.9334 476.571 35.7893C476.702 35.6515 476.815 35.473 476.909 35.2537L477.144 34.6993L477.125 35.0846L475.067 30.2642H476.082L477.68 34.2107H477.426L479.023 30.2642H480L477.83 35.3383C477.692 35.6515 477.545 35.9146 477.388 36.1276C477.232 36.3406 477.062 36.5128 476.881 36.6444C476.699 36.7759 476.499 36.8793 476.279 36.9545C476.06 37.0296 475.822 37.0891 475.565 37.133ZM480.144 35V33.8818H481.262V35H480.144ZM483.447 35L481.417 30.2642H482.432L484.029 34.2201H483.757L485.383 30.2642H486.35L484.311 35H483.447ZM489.21 35.0846C488.446 35.0846 487.844 34.8684 487.406 34.4362C486.967 34.004 486.748 33.4057 486.748 32.6415C486.748 32.1466 486.842 31.7144 487.03 31.3448C487.224 30.9752 487.49 30.6902 487.829 30.4897C488.173 30.283 488.571 30.1796 489.022 30.1796C489.467 30.1796 489.84 30.2736 490.14 30.4615C490.441 30.6494 490.67 30.9157 490.826 31.2602C490.983 31.5985 491.061 31.9994 491.061 32.463V32.7636H487.49V32.2186H490.413L490.253 32.3408C490.253 31.871 490.146 31.5076 489.933 31.2508C489.727 30.9877 489.426 30.8562 489.031 30.8562C488.593 30.8562 488.255 31.0096 488.017 31.3166C487.779 31.6173 487.66 32.0338 487.66 32.5663V32.6603C487.66 33.2178 487.794 33.6375 488.064 33.9194C488.339 34.2013 488.728 34.3422 489.229 34.3422C489.504 34.3422 489.761 34.3047 489.999 34.2295C490.244 34.1481 490.475 34.0165 490.695 33.8348L491.005 34.4832C490.785 34.6774 490.519 34.8277 490.206 34.9342C489.893 35.0345 489.561 35.0846 489.21 35.0846ZM492.131 35V31.4387C492.131 31.2445 492.125 31.0504 492.113 30.8562C492.106 30.6557 492.094 30.4584 492.075 30.2642H492.996L493.099 31.4857H492.949C493.011 31.1913 493.118 30.947 493.268 30.7528C493.419 30.5586 493.6 30.4145 493.813 30.3206C494.033 30.2266 494.261 30.1796 494.499 30.1796C494.599 30.1796 494.684 30.1859 494.753 30.1984C494.822 30.2047 494.891 30.2172 494.96 30.236L494.95 31.0817C494.844 31.0378 494.75 31.0128 494.668 31.0065C494.593 30.994 494.499 30.9877 494.386 30.9877C494.111 30.9877 493.876 31.0504 493.682 31.1756C493.488 31.2947 493.34 31.4575 493.24 31.6643C493.14 31.871 493.09 32.0934 493.09 32.3314V35H492.131ZM497.705 35.0846C497.228 35.0846 496.812 34.9875 496.455 34.7933C496.104 34.5928 495.831 34.3078 495.637 33.9382C495.449 33.5623 495.355 33.1176 495.355 32.6039C495.355 32.0965 495.452 31.6611 495.647 31.2978C495.841 30.9345 496.113 30.6588 496.464 30.4709C496.815 30.2767 497.228 30.1796 497.705 30.1796C498.011 30.1796 498.309 30.2329 498.597 30.3394C498.885 30.4396 499.123 30.5837 499.311 30.7716L499.001 31.4387C498.826 31.2696 498.628 31.1443 498.409 31.0629C498.19 30.9752 497.977 30.9313 497.77 30.9313C497.319 30.9313 496.965 31.0754 496.708 31.3636C496.452 31.6517 496.323 32.0683 496.323 32.6133C496.323 33.1646 496.452 33.5874 496.708 33.8818C496.965 34.1762 497.319 34.3235 497.77 34.3235C497.971 34.3235 498.181 34.2859 498.4 34.2107C498.619 34.1293 498.82 34.0008 499.001 33.8254L499.311 34.4926C499.117 34.6805 498.873 34.8277 498.578 34.9342C498.29 35.0345 497.999 35.0846 497.705 35.0846ZM502.415 35.0846C501.65 35.0846 501.049 34.8684 500.61 34.4362C500.172 34.004 499.953 33.4057 499.953 32.6415C499.953 32.1466 500.047 31.7144 500.235 31.3448C500.429 30.9752 500.695 30.6902 501.033 30.4897C501.378 30.283 501.776 30.1796 502.227 30.1796C502.671 30.1796 503.044 30.2736 503.345 30.4615C503.645 30.6494 503.874 30.9157 504.031 31.2602C504.187 31.5985 504.266 31.9994 504.266 32.463V32.7636H500.695V32.2186H503.617L503.458 32.3408C503.458 31.871 503.351 31.5076 503.138 31.2508C502.931 30.9877 502.631 30.8562 502.236 30.8562C501.798 30.8562 501.459 31.0096 501.221 31.3166C500.983 31.6173 500.864 32.0338 500.864 32.5663V32.6603C500.864 33.2178 500.999 33.6375 501.268 33.9194C501.544 34.2013 501.932 34.3422 502.433 34.3422C502.709 34.3422 502.966 34.3047 503.204 34.2295C503.448 34.1481 503.68 34.0165 503.899 33.8348L504.209 34.4832C503.99 34.6774 503.724 34.8277 503.411 34.9342C503.097 35.0345 502.765 35.0846 502.415 35.0846ZM505.355 35V28.0842H506.304V35H505.355ZM507.554 35V33.8818H508.672V35H507.554ZM511.701 35.0846C511.282 35.0846 510.915 34.9875 510.602 34.7933C510.289 34.5991 510.044 34.3172 509.869 33.9476C509.7 33.578 509.615 33.1395 509.615 32.6321C509.615 32.1184 509.7 31.6799 509.869 31.3166C510.044 30.9533 510.289 30.6745 510.602 30.4803C510.915 30.2798 511.282 30.1796 511.701 30.1796C512.115 30.1796 512.475 30.283 512.782 30.4897C513.089 30.6964 513.292 30.9783 513.393 31.3354H513.289L513.383 30.2642H514.304C514.285 30.4584 514.267 30.6526 514.248 30.8468C514.235 31.0347 514.229 31.2195 514.229 31.4012V35H513.28V33.9476H513.383C513.283 34.2984 513.076 34.5772 512.763 34.7839C512.456 34.9843 512.102 35.0846 511.701 35.0846ZM511.936 34.3422C512.343 34.3422 512.669 34.1982 512.913 33.91C513.164 33.6219 513.289 33.1959 513.289 32.6321C513.289 32.0683 513.164 31.6455 512.913 31.3636C512.669 31.0754 512.343 30.9313 511.936 30.9313C511.523 30.9313 511.191 31.0754 510.94 31.3636C510.696 31.6455 510.574 32.0683 510.574 32.6321C510.574 33.1959 510.696 33.6219 510.94 33.91C511.184 34.1982 511.516 34.3422 511.936 34.3422ZM515.614 37.0296V31.4012C515.614 31.2195 515.604 31.0347 515.586 30.8468C515.573 30.6526 515.557 30.4584 515.539 30.2642H516.459L516.553 31.3354H516.45C516.55 30.9783 516.751 30.6964 517.051 30.4897C517.358 30.283 517.722 30.1796 518.141 30.1796C518.561 30.1796 518.928 30.2798 519.241 30.4803C519.554 30.6745 519.795 30.9533 519.964 31.3166C520.14 31.6799 520.227 32.1184 520.227 32.6321C520.227 33.1395 520.14 33.578 519.964 33.9476C519.795 34.3172 519.554 34.5991 519.241 34.7933C518.928 34.9875 518.561 35.0846 518.141 35.0846C517.728 35.0846 517.368 34.9843 517.061 34.7839C516.76 34.5772 516.56 34.2984 516.459 33.9476H516.563V37.0296H515.614ZM517.906 34.3422C518.32 34.3422 518.649 34.1982 518.893 33.91C519.144 33.6219 519.269 33.1959 519.269 32.6321C519.269 32.0683 519.144 31.6455 518.893 31.3636C518.649 31.0754 518.32 30.9313 517.906 30.9313C517.493 30.9313 517.161 31.0754 516.91 31.3636C516.666 31.6455 516.544 32.0683 516.544 32.6321C516.544 33.1959 516.666 33.6219 516.91 33.91C517.161 34.1982 517.493 34.3422 517.906 34.3422ZM521.34 37.0296V31.4012C521.34 31.2195 521.33 31.0347 521.312 30.8468C521.299 30.6526 521.283 30.4584 521.265 30.2642H522.185L522.279 31.3354H522.176C522.276 30.9783 522.477 30.6964 522.777 30.4897C523.084 30.283 523.448 30.1796 523.867 30.1796C524.287 30.1796 524.654 30.2798 524.967 30.4803C525.28 30.6745 525.521 30.9533 525.69 31.3166C525.866 31.6799 525.953 32.1184 525.953 32.6321C525.953 33.1395 525.866 33.578 525.69 33.9476C525.521 34.3172 525.28 34.5991 524.967 34.7933C524.654 34.9875 524.287 35.0846 523.867 35.0846C523.454 35.0846 523.094 34.9843 522.787 34.7839C522.486 34.5772 522.286 34.2984 522.185 33.9476H522.289V37.0296H521.34ZM523.632 34.3422C524.046 34.3422 524.375 34.1982 524.619 33.91C524.87 33.6219 524.995 33.1959 524.995 32.6321C524.995 32.0683 524.87 31.6455 524.619 31.3636C524.375 31.0754 524.046 30.9313 523.632 30.9313C523.219 30.9313 522.887 31.0754 522.636 31.3636C522.392 31.6455 522.27 32.0683 522.27 32.6321C522.27 33.1959 522.392 33.6219 522.636 33.91C522.887 34.1982 523.219 34.3422 523.632 34.3422Z" fill="white"/>
<circle cx="41.6154" cy="32.02" r="3.40398" fill="white"/>
<circle opacity="0.6" cx="52.6779" cy="32.02" r="3.40398" fill="white"/>
<circle opacity="0.3" cx="63.7409" cy="32.02" r="3.40398" fill="white"/>
<path d="M89.271 29.4667H90.122" stroke="white" stroke-width="1.04405" stroke-linecap="square" stroke-linejoin="round"/>
<path d="M89.271 31.1686H90.122" stroke="white" stroke-width="1.04405" stroke-linecap="square" stroke-linejoin="round"/>
<rect x="87.0468" y="27.2428" width="12.958" height="10.405" rx="1.56608" stroke="white" stroke-width="1.04405"/>
<path d="M91.8242 27.3392V37.5512" stroke="white" stroke-width="1.04405" stroke-linecap="square" stroke-linejoin="round"/>
<path d="M651.996 28.5297C651.443 28.5272 650.897 28.6489 650.398 28.8858C649.898 29.1227 649.459 29.4688 649.111 29.8984C648.028 31.2246 648.014 33.194 649.085 34.5333C650.496 36.3058 653.069 36.4174 654.622 34.8648C655.118 34.3691 655.463 33.743 655.617 33.0591C655.771 32.3752 655.727 31.6617 655.492 31.0014C655.377 30.6764 654.967 30.5812 654.724 30.8241C654.602 30.9456 654.553 31.1261 654.609 31.2869C654.828 31.8875 654.834 32.5453 654.626 33.1497C654.417 33.7541 654.007 34.2682 653.463 34.6055C652.574 35.1734 651.392 35.1668 650.509 34.5924C650.156 34.3691 649.858 34.0694 649.636 33.7153C649.415 33.3612 649.276 32.9618 649.23 32.5468C649.183 32.1317 649.231 31.7115 649.369 31.3173C649.507 30.9231 649.732 30.565 650.027 30.2694C650.572 29.7245 651.284 29.4652 651.996 29.4684L651.996 30.4597C651.996 30.8733 652.495 31.0834 652.787 30.7913L653.966 29.6129C654.146 29.4323 654.146 29.1369 653.966 28.9564L652.787 27.778C652.495 27.4858 651.993 27.6926 651.993 28.1062L651.996 28.5297Z" fill="white"/>
<path fill-rule="evenodd" clip-rule="evenodd" d="M901.212 28.54C901.212 27.931 901.69 27.42 902.35 27.4189C903.011 27.4177 903.437 27.42 903.437 27.42C903.437 27.42 903.409 26.7691 903.409 26.2515C903.409 25.7337 903.864 25.2156 904.525 25.2156C905.186 25.2156 911.312 25.1965 911.933 25.2426C912.554 25.2887 913.049 25.6794 913.049 26.3079C913.049 26.9364 913.045 33.1683 913.045 33.7455C913.045 34.3227 912.527 34.8471 911.885 34.8543C911.243 34.8616 910.808 34.847 910.808 34.847C910.808 34.847 910.832 35.5761 910.832 36.024C910.832 36.4718 910.311 37.1222 909.7 37.1222C909.089 37.1222 902.89 37.1618 902.299 37.1618C901.707 37.1618 901.161 36.6414 901.187 35.9926C901.212 35.3439 901.212 29.1489 901.212 28.54H901.212ZM904.58 26.4567L904.575 33.6356C904.575 33.7158 904.641 33.7812 904.721 33.7807L911.71 33.7434C911.748 33.7433 911.786 33.7277 911.813 33.7001C911.84 33.6726 911.856 33.6353 911.856 33.5964L911.851 26.4819C911.851 26.443 911.836 26.4056 911.808 26.3781C911.78 26.3506 911.743 26.3351 911.704 26.3351L904.727 26.3113C904.708 26.3111 904.689 26.3147 904.671 26.3219C904.653 26.3292 904.637 26.3398 904.623 26.3534C904.61 26.3669 904.599 26.383 904.592 26.4007C904.584 26.4184 904.58 26.4375 904.58 26.4567ZM902.342 28.8377L902.409 35.8763C902.41 35.9151 902.426 35.9521 902.453 35.9793C902.481 36.0065 902.518 36.0216 902.557 36.0213L909.441 35.969C909.479 35.9688 909.517 35.961 909.552 35.946C909.587 35.9311 909.62 35.9093 909.646 35.882C909.673 35.8546 909.694 35.8222 909.709 35.7866C909.723 35.751 909.73 35.7129 909.73 35.6746L909.72 34.8601C909.72 34.8601 905.121 34.9024 904.523 34.9024C903.925 34.9024 903.394 34.3363 903.394 33.6993C903.394 33.0624 903.437 28.6752 903.437 28.6752C903.438 28.5947 903.373 28.5296 903.293 28.5307L902.633 28.5402C902.555 28.5413 902.48 28.5732 902.426 28.6289C902.372 28.6847 902.341 28.7597 902.342 28.8377Z" fill="white"/>
<path d="M881.334 30.5307V26.063H880.057V30.5307H875.589V31.8072H880.057V36.2749H881.334V31.8072H885.801V30.5307H881.334Z" fill="white"/>
<path d="M855.167 25.2117L852.897 27.481H854.599V32.587H855.734V27.481H857.436L855.167 25.2117ZM858.571 37.6929H851.763C851.462 37.6929 851.173 37.5734 850.96 37.3606C850.747 37.1478 850.628 36.8592 850.628 36.5583V29.7503C850.628 29.4494 850.747 29.1608 850.96 28.948C851.173 28.7352 851.462 28.6156 851.763 28.6156H853.465V29.7503H851.763V36.5583H858.571V29.7503H856.869V28.6156H858.571C858.871 28.6156 859.16 28.7352 859.373 28.948C859.586 29.1608 859.705 29.4494 859.705 29.7503V36.5583C859.705 36.8592 859.586 37.1478 859.373 37.3606C859.16 37.5734 858.871 37.6929 858.571 37.6929Z" fill="white"/>
<path d="M118.476 27.6256L114.221 31.8806L118.05 35.7101" stroke="white" stroke-width="1.56608" stroke-linecap="round" stroke-linejoin="round"/>
<path opacity="0.5" d="M134.219 35.7101L138.474 31.4551L134.645 27.6256" stroke="white" stroke-width="1.56608" stroke-linecap="round" stroke-linejoin="round"/>
<defs>
<filter id="filter0_bdi_45_1307" x="-12.76" y="-17.76" width="981.231" height="678.236" filterUnits="userSpaceOnUse" color-interpolation-filters="sRGB">
<feFlood flood-opacity="0" result="BackgroundImageFix"/>
<feGaussianBlur in="BackgroundImageFix" stdDeviation="16.38"/>
<feComposite in2="SourceAlpha" operator="in" result="effect1_backgroundBlur_45_1307"/>
<feColorMatrix in="SourceAlpha" type="matrix" values="0 0 0 0 0 0 0 0 0 0 0 0 0 0 0 0 0 0 127 0" result="hardAlpha"/>
<feOffset dy="5.22026"/>
<feGaussianBlur stdDeviation="9.91849"/>
<feComposite in2="hardAlpha" operator="out"/>
<feColorMatrix type="matrix" values="0 0 0 0 0 0 0 0 0 0 0 0 0 0 0 0 0 0 0.12 0"/>
<feBlend mode="normal" in2="effect1_backgroundBlur_45_1307" result="effect2_dropShadow_45_1307"/>
<feBlend mode="normal" in="SourceGraphic" in2="effect2_dropShadow_45_1307" result="shape"/>
<feColorMatrix in="SourceAlpha" type="matrix" values="0 0 0 0 0 0 0 0 0 0 0 0 0 0 0 0 0 0 127 0" result="hardAlpha"/>
<feOffset dy="1.04405"/>
<feComposite in2="hardAlpha" operator="arithmetic" k2="-1" k3="1"/>
<feColorMatrix type="matrix" values="0 0 0 0 1 0 0 0 0 1 0 0 0 0 1 0 0 0 0.3 0"/>
<feBlend mode="normal" in2="shape" result="effect3_innerShadow_45_1307"/>
</filter>
</defs>
</svg>
