<svg width="16" height="20" viewBox="0 0 16 20" fill="none" xmlns="http://www.w3.org/2000/svg">
<path d="M7.00002 19.9999C6.7348 19.9999 6.48045 19.8946 6.29291 19.7071C6.10537 19.5195 6.00002 19.2652 6.00002 18.9999V12.9999H1.00002C0.815561 13 0.634691 12.949 0.477412 12.8526C0.320133 12.7562 0.192574 12.6182 0.108843 12.4539C0.025112 12.2895 -0.0115286 12.1052 0.00297391 11.9213C0.0174764 11.7374 0.082557 11.5611 0.191018 11.4119L8.19102 0.411947C8.31516 0.241092 8.49021 0.113926 8.69107 0.0486779C8.89193 -0.0165705 9.10829 -0.016551 9.30914 0.0487334C9.50999 0.114018 9.68501 0.241215 9.80912 0.412093C9.93323 0.58297 10.0001 0.788754 10 0.999947V6.99995H15C15.1845 6.99992 15.3653 7.05091 15.5226 7.14729C15.6799 7.24366 15.8075 7.38165 15.8912 7.54601C15.9749 7.71037 16.0116 7.89468 15.9971 8.07857C15.9826 8.26246 15.9175 8.43875 15.809 8.58795L7.80902 19.5879C7.71624 19.7156 7.59457 19.8194 7.45397 19.891C7.31336 19.9627 7.15781 20 7.00002 19.9999Z" fill="black"/>
</svg>
