<svg width="14" height="20" viewBox="0 0 14 20" fill="none" xmlns="http://www.w3.org/2000/svg">
<path d="M0.330261 14.3192C0.330261 13.7669 0.777976 13.3192 1.33026 13.3192H7.01108V19C7.01108 19.5523 6.56337 20 6.01108 20H1.33026C0.777977 20 0.330261 19.5523 0.330261 19V14.3192Z" fill="#0D0D10"/>
<path d="M6.98895 6.65955H12.6698C13.2221 6.65955 13.6698 7.10726 13.6698 7.65955V12.3404C13.6698 12.8927 13.2221 13.3404 12.6698 13.3404H6.98895V6.65955Z" fill="#0D0D10"/>
<path d="M0.330261 1C0.330261 0.447716 0.777976 0 1.33026 0H6.01108C6.56337 0 7.01108 0.447715 7.01108 1V6.68082H1.33026C0.777977 6.68082 0.330261 6.23311 0.330261 5.68082V1Z" fill="#0D0D10"/>
<path d="M4.28157 13.3556C6.98895 13.3556 7.06213 13.3556 7.06213 10.9775L10.1354 13.3332C6.98896 13.3332 6.98895 13.3556 6.98895 16.5752L4.28157 13.3556Z" fill="#0D0D10"/>
<path d="M4.2084 6.65864C6.91578 6.65864 6.98895 6.65864 6.98895 9.03674L10.0622 6.66662C6.91578 6.66662 6.98895 6.65864 6.98895 3.43905L4.2084 6.65864Z" fill="#0D0D10"/>
</svg>
